<?xml version="1.0" standalone="no"?><!DOCTYPE svg PUBLIC "-//W3C//DTD SVG 1.1//EN" "http://www.w3.org/Graphics/SVG/1.1/DTD/svg11.dtd"><svg t="1582008142491" class="icon" viewBox="0 0 1024 1024" version="1.1" xmlns="http://www.w3.org/2000/svg" p-id="10902" xmlns:xlink="http://www.w3.org/1999/xlink" width="16" height="16"><defs><style type="text/css"></style></defs><path d="M547.400255 552.891316c8.66945 1.451048 17.274432 3.258207 25.824155 5.269004 15.669888 3.697205 31.070646 8.462742 46.147016 14.027481 3.39226 1.25048 6.756891 2.575662 10.112312 3.918239 0.036839 0.016373 0.064468 0.027629 0.103354 0.041956 0.308015 0.130983 0.690732 0.296759 1.188058 0.508583 1.994424 0.850367 3.973498 1.731434 5.953595 2.617617 7.92039 3.532453 15.694447 7.383154 23.357987 11.42112 13.513782 7.120165 30.525224 3.419889 38.476313-9.91379 7.528464-12.621459 3.403516-30.67872-10.087753-37.782511-23.343661-12.302187-47.772027-22.437012-72.910567-30.299073 22.149463-13.365402 42.159192-30.131251 58.718333-49.369408 37.924751-44.071751 59.07342-99.621928 59.291384-157.405983C733.35648 247.837598 712.002127 192.96178 674.28306 148.515498c-35.265178-41.566698-86.977957-70.746274-141.076062-80.453357-58.511625-10.507308-119.150704-0.693802-170.678264 28.719088-49.839105 28.444842-86.955444 73.797773-107.276259 126.443807-20.161179 52.207036-19.727297 113.163339 0 165.398004 19.420305 51.404764 55.642275 95.183849 103.125729 123.977639-34.955116 10.93505-68.464301 26.299993-99.378381 45.788859-57.611116 36.325323-105.880469 86.401836-139.851165 144.762011-36.19434 62.188364-54.937217 133.676535-55.138808 205.211778-0.047072 15.059997 12.82305 27.625174 28.117384 27.625174 15.364943 0 28.080545-12.565177 28.120454-27.616988 0.030699-8.485255 0.308015-16.953114 0.847298-25.415856 0.271176-4.228301 0.648776-8.451486 1.057075-12.666484 0.206708-2.109034 0.438998-4.220115 0.679475-6.323009 0.092098-0.800225 0.51984-3.968381 0.713244-5.445012 2.488681-16.698311 6.180769-33.218566 10.839883-49.461505 2.346441-8.154727 5.025457-16.21531 7.909134-24.202215 1.439792-3.996011 2.983961-7.956206 4.560876-11.900028 0.405229-1.01512 0.836041-2.02717 1.258667-3.037173 0.237407-0.522909 1.918699-4.446265 2.323928-5.344728 6.807033-15.08251 14.70491-29.66974 23.401989-43.769876 4.169973-6.765077 8.608052-13.378705 13.19451-19.878746 2.290159-3.255137 4.656043-6.457062 7.04751-9.637498 0.587378-0.782829 1.188058-1.552356 1.786693-2.326998-0.134053 0.206708 3.009544-3.774977 3.680832-4.600785 10.496052-12.833283 21.902846-24.926716 33.967626-36.350906 5.755074-5.459339 11.737322-10.69662 17.817808-15.797801 3.045359-2.553149 6.15007-5.0449 9.268084-7.502881 0.385786-0.304945 1.355881-1.048889 2.14792-1.658779 1.616824-1.202385 3.238764-2.399653 4.868891-3.582595 13.412474-9.732665 27.51568-18.527982 42.070164-26.526143 6.40692-3.518127 12.93459-6.812149 19.531845-9.970072 3.082198-1.476631 6.200212-2.891863 9.324366-4.2897 1.921769-0.858554 3.858888-1.689479 5.791913-2.51938 0.319272-0.125867 0.735757-0.293689 1.286296-0.514723 14.548344-5.848195 29.493731-10.728342 44.650943-14.82259 15.155165-4.105504 30.578436-7.195889 46.122457-9.497305 0.455371-0.064468 0.832971-0.11768 1.146103-0.162706 1.376347-0.167822 2.75167-0.340761 4.131087-0.503467 4.259-0.487094 8.532327-0.877997 12.802584-1.233084 8.641821-0.724501 17.314341-1.093914 25.983791-1.252527 16.122189-0.304945 32.256658 0.503467 48.294936 2.12029 1.186012 0.119727 7.042393 0.842181 8.112772 0.950651C540.388561 551.758516 543.896454 552.303938 547.400255 552.891316L547.400255 552.891316zM561.332569 478.316853C566.05922 476.286614 563.209312 477.54221 561.332569 478.316853L561.332569 478.316853 561.332569 478.316853zM297.971415 281.96793C297.650097 284.506752 297.778011 283.436374 297.971415 281.96793L297.971415 281.96793 297.971415 281.96793zM522.954493 489.639736c-3.1262 0.632403-6.272867 1.163499-9.432837 1.658779-0.23536 0.036839-0.531096 0.083911-0.853437 0.125867-1.484817 0.172939-2.967588 0.329505-4.452405 0.472767-13.566994 1.336438-27.267017 1.286296-40.850383 0.145309-1.331321-0.109494-5.607718-0.626263-7.178493-0.797156-2.018983-0.313132-4.03285-0.648776-6.040576-1.006933-6.753821-1.213641-13.434987-2.811022-20.040429-4.650927-6.02932-1.678222-11.966543-3.671623-17.825994-5.853311-1.191128-0.447185-2.38021-0.916882-3.565199-1.387603-3.235694-1.400906-6.432503-2.911306-9.592472-4.457522-11.409864-5.587252-22.24463-12.277628-32.482809-19.733437-0.992607-0.777713-1.983167-1.557472-2.961448-2.354628-2.368954-1.907443-4.673439-3.89061-6.955412-5.903453-4.955872-4.342912-9.648754-8.958022-14.175861-13.725606-3.303232-3.476171-6.455015-7.089465-9.503445-10.786671-0.064468-0.151449-3.529383-4.612041-4.424776-5.853311-2.080382-2.87242-4.055362-5.814426-5.987365-8.78099-3.316535-5.106298-6.368034-10.381441-9.234315-15.747659-1.442862-2.690272-2.796696-5.425569-4.113691-8.17724-0.660032-1.358951-1.281179-2.735297-1.901303-4.105504-0.067538-0.156566-0.130983-0.319272-0.206708-0.500397-4.913916-11.938913-8.580422-24.352641-11.225669-36.965913-0.64366-3.074012-1.179872-6.166443-1.683339-9.265014-0.025583-0.162706-0.056282-0.349971-0.086981-0.550539-0.12075-1.026376-0.251733-2.052752-0.361227-3.079128-0.75827-6.916527-1.093914-13.862729-1.174756-20.813025-0.072655-6.440689 0.212848-12.881378 0.724501-19.302625 0.201591-2.561335 0.484024-5.112438 0.791016-7.662517 0.038886-0.271176 0.075725-0.522909 0.106424-0.727571 0.319272-2.072195 0.695848-4.131087 1.082658-6.188956 2.357697-12.691043 6.03546-25.136493 10.686387-37.190017 0.442068-1.140986 0.911766-2.278903 1.376347-3.411703 1.230014-2.75167 2.541893-5.464455 3.88754-8.154727 2.948145-5.903453 6.225795-11.639085 9.707083-17.249873 3.198855-5.154393 6.67605-10.140964 10.308787-15.018042 0.162706-0.217964 0.38067-0.500397 0.61296-0.805342 0.525979-0.64366 1.045819-1.294482 1.576915-1.935072 2.248204-2.732228 4.591575-5.383614 6.979972-8.001231 7.6574-8.414647 16.068977-16.152888 24.988114-23.274076 0.405229-0.25685 4.697999-3.473101 5.922896-4.329609 2.508123-1.753947 5.070482-3.419889 7.646144-5.062296 5.607718-3.576455 11.419074-6.840802 17.325597-9.891278 2.746554-1.412163 5.528923-2.738367 8.328689-4.041036 1.36509-0.632403 2.743484-1.236154 4.131087-1.846044 5.984295-2.388397 12.092409-4.468778 18.264992-6.329149 6.043646-1.815345 12.187577-3.311419 18.362206-4.605901 3.1262-0.648776 6.264681-1.199315 9.408277-1.722224 0.369414-0.061398 0.735757-0.109494 1.102101-0.164752 1.188058-0.153496 3.269463-0.427742 4.183276-0.51984 13.555737-1.437745 27.247574-1.484817 40.836057-0.442068 1.876744 0.14224 3.747347 0.327458 5.615904 0.522909 0.072655 0.053212 6.043646 0.855484 7.6574 1.13587 6.770194 1.163499 13.468756 2.717901 20.093641 4.507664 6.046716 1.62808 12.003382 3.587712 17.879206 5.730515 1.099031 0.400113 4.357238 1.720178 6.006807 2.38021 2.427282 1.073448 4.841262 2.181689 7.229658 3.324722 11.533684 5.554506 22.490224 12.218276 32.849152 19.665899 0.224104 0.162706 0.514723 0.37453 0.821715 0.601704 0.654916 0.517793 1.316995 1.026376 1.968841 1.546216 2.38021 1.896186 4.707209 3.861958 7.005554 5.853311 4.980431 4.315282 9.710153 8.898671 14.271028 13.636578 4.047176 4.200672 7.867178 8.593725 11.546987 13.102413 0.855484 1.124614 1.697665 2.26253 2.533706 3.3984 2.097778 2.858094 4.091178 5.791913 6.046716 8.745175 3.358491 5.081739 6.440689 10.336416 9.343809 15.675004 1.460258 2.682086 2.835581 5.403057 4.178159 8.143471 0.671289 1.376347 1.313925 2.762927 1.957585 4.14746 0.179079 0.385786 0.330528 0.713244 0.461511 0.992607 5.075599 12.20702 8.871041 24.901133 11.56643 37.810141 0.64366 3.072989 1.186012 6.166443 1.689479 9.268084 0.036839 0.221034 0.078795 0.497327 0.125867 0.800225 0.172939 1.468444 0.335644 2.938935 0.484024 4.41352 0.701988 6.924713 0.992607 13.893428 1.01819 20.84884-0.025583 6.437619-0.316202 12.855796-0.86674 19.265786-0.11461 1.27197-0.60989 5.27412-0.797156 6.918573-0.408299 2.544963-0.853437 5.081739-1.347694 7.615445-2.452865 12.663414-6.214539 25.060769-10.948353 37.077453-0.184195 0.464581-0.38067 0.919952-0.571005 1.387603-0.285502 0.656963-0.60989 1.403976-0.821715 1.868557-1.263783 2.785439-2.614547 5.517667-3.993964 8.252964-2.990101 5.872754-6.309706 11.583826-9.832949 17.159822-3.177366 5.047969-6.622838 9.925047-10.215666 14.687514-0.805342 0.992607-1.61887 1.977028-2.438539 2.956332-2.270716 2.712785-4.63353 5.349845-7.039323 7.956206-4.110621 4.455475-8.467859 8.700149-12.945847 12.805654-2.243087 2.052752-4.550643 4.041036-6.876618 5.993504-1.197268 1.010003-5.741771 4.530177-6.624884 5.254677-9.399067 6.810103-19.405979 12.81998-29.78435 18.085914-2.75167 1.39272-5.548366 2.698458-8.362458 3.976568-1.023306 0.469698-2.057869 0.914836-3.093455 1.362021-0.064468 0.027629-0.125867 0.050142-0.184195 0.072655-6.287193 2.499937-12.718673 4.63353-19.218714 6.540973C535.309892 486.941278 529.151635 488.390279 522.954493 489.639736L522.954493 489.639736zM536.537859 643.577734c0 15.059997 12.789281 27.622104 28.117384 27.622104l366.154307 0c15.322987 0 28.117384-12.562107 28.117384-27.622104s-12.791327-27.620058-28.117384-27.620058L564.655244 615.957677C549.32714 615.9587 536.537859 628.520807 536.537859 643.577734L536.537859 643.577734zM930.810574 759.823272 564.655244 759.823272c-15.328104 0-28.117384 12.56006-28.117384 27.616988 0 15.056927 12.789281 27.625174 28.117384 27.625174l366.154307 0c15.322987 0 28.117384-12.568247 28.117384-27.625174C958.927959 772.382309 946.135608 759.823272 930.810574 759.823272L930.810574 759.823272zM930.810574 903.68682 564.655244 903.68682c-15.328104 0-28.117384 12.565177-28.117384 27.619034 0 15.051811 12.789281 27.616988 28.117384 27.616988l366.154307 0c15.322987 0 28.117384-12.565177 28.117384-27.616988C958.927959 916.25302 946.135608 903.68682 930.810574 903.68682L930.810574 903.68682z" p-id="10903"></path></svg>